<?xml version="1.0" standalone="no"?>
<!DOCTYPE svg PUBLIC "-//W3C//DTD SVG 20010904//EN"
 "http://www.w3.org/TR/2001/REC-SVG-20010904/DTD/svg10.dtd">
<svg version="1.0" xmlns="http://www.w3.org/2000/svg"
 width="260.000000pt" height="260.000000pt" viewBox="0 0 260.000000 260.000000"
 preserveAspectRatio="xMidYMid meet">
<metadata>
Created by potrace 1.11, written by Peter Selinger 2001-2013
</metadata>
<g transform="translate(0.000000,260.000000) scale(0.100000,-0.100000)"
fill="#000000" stroke="none">
<path d="M780 1784 c0 -8 5 -12 10 -9 6 3 10 2 10 -4 0 -15 -18 -23 -22 -9 -3
8 -12 5 -28 -10 -13 -12 -33 -24 -44 -28 -55 -15 -86 -42 -48 -43 40 -1 52 -5
52 -16 0 -13 -39 -14 -59 -1 -10 7 -12 4 -6 -13 4 -13 2 -21 -5 -21 -6 0 -8 5
-5 10 3 6 -3 10 -14 10 -14 0 -19 -5 -15 -15 4 -8 2 -15 -3 -15 -4 0 -13 -8
-19 -17 -10 -17 -6 -18 50 -16 34 1 73 4 87 8 23 6 25 4 25 -22 -1 -24 3 -29
28 -31 20 -3 25 -6 17 -12 -10 -6 -11 -12 -2 -26 6 -11 11 -14 11 -8 0 7 11
15 25 18 14 4 23 11 20 16 -3 5 8 5 27 -1 18 -5 34 -13 36 -18 4 -11 42 -2 42
10 0 5 5 9 11 9 5 0 8 -4 5 -8 -2 -4 7 -7 22 -7 15 1 33 -4 41 -9 12 -9 13 -7
8 7 -6 15 2 22 25 18 4 0 31 -1 60 -1 29 0 65 0 80 0 15 0 30 4 33 10 4 6 11
8 16 4 5 -3 21 2 35 11 13 9 29 13 34 10 6 -3 10 -1 10 4 0 16 -36 13 -50 -4
-8 -10 -17 -12 -24 -6 -10 8 -51 4 -121 -12 -11 -2 -14 -2 -7 0 17 6 15 23 -3
23 -8 0 -15 5 -15 11 0 7 8 9 23 4 40 -12 62 -11 59 4 -2 8 3 18 10 22 17 11
31 11 24 1 -6 -10 40 -10 50 1 4 4 2 7 -4 7 -7 0 -12 6 -12 14 0 12 -30 22
-92 28 -10 1 -18 6 -18 10 0 4 -6 8 -14 8 -8 0 -17 7 -20 16 -9 22 -8 24 9 24
8 0 15 -4 15 -10 0 -5 5 -10 12 -10 9 0 9 3 0 12 -8 8 -6 18 9 40 l21 28 -27
-12 c-21 -9 -28 -9 -35 1 -5 9 -22 12 -49 9 -22 -2 -41 -1 -41 3 0 4 -19 7
-43 6 -24 0 -49 3 -55 7 -7 4 -15 1 -18 -7 -5 -15 -26 -19 -64 -10 -23 5 -24
6 -5 13 15 7 10 9 -22 9 -33 1 -43 -3 -43 -15z m7 -154 c-3 -10 0 -21 7 -24 6
-2 1 -4 -10 -3 -19 1 -20 4 -11 24 13 28 21 30 14 3z"/>
<path d="M715 1760 c3 -5 10 -10 16 -10 5 0 9 5 9 10 0 6 -7 10 -16 10 -8 0
-12 -4 -9 -10z"/>
<path d="M1184 1759 c-3 -6 -2 -15 3 -20 5 -5 14 0 21 11 10 17 10 20 -2 20
-8 0 -18 -5 -22 -11z"/>
<path d="M1230 1756 c0 -2 8 -10 18 -17 15 -13 16 -12 3 4 -13 16 -21 21 -21
13z"/>
<path d="M517 1698 c-7 -5 -2 -8 13 -8 14 0 32 5 40 10 11 7 8 9 -13 8 -15 -1
-33 -6 -40 -10z"/>
<path d="M566 1631 c-4 -7 -5 -15 -2 -18 9 -9 19 4 14 18 -4 11 -6 11 -12 0z"/>
<path d="M514 1619 c-3 -6 -2 -15 4 -21 6 -6 11 -2 15 11 5 22 -7 29 -19 10z"/>
<path d="M1360 1580 c-8 -5 -12 -11 -9 -14 3 -3 14 1 25 9 21 16 8 20 -16 5z"/>
<path d="M2180 1555 c-18 -33 -8 -40 29 -21 40 21 45 20 20 -5 -16 -16 -18
-23 -9 -29 7 -5 10 -16 6 -25 -3 -10 2 -29 14 -46 20 -27 20 -30 4 -61 -20
-39 -26 -78 -12 -75 23 5 18 -24 -6 -33 -14 -5 -26 -12 -26 -15 0 -4 5 -3 10
0 6 3 10 1 10 -6 0 -9 3 -9 14 0 12 10 16 5 27 -26 13 -40 14 -48 26 -208 5
-57 12 -99 18 -98 6 1 18 5 29 9 16 6 17 5 7 -14 -7 -12 -17 -22 -24 -22 -7 0
-18 -9 -24 -19 -10 -16 -9 -18 8 -14 13 4 19 0 19 -11 0 -10 -4 -15 -9 -11 -6
3 -6 -7 0 -27 5 -18 9 -35 9 -38 0 -3 4 2 10 10 17 27 23 1 12 -54 -12 -62 0
-112 29 -119 11 -3 20 -19 24 -43 13 -82 15 -87 30 -74 10 8 15 8 20 0 4 -6
13 -9 21 -6 8 3 14 -1 14 -9 0 -17 -16 -20 -25 -5 -3 6 -10 10 -16 10 -5 0 -9
-4 -9 -10 0 -5 7 -10 15 -10 8 0 15 -4 15 -10 0 -5 7 -7 15 -4 10 4 15 0 15
-10 0 -11 18 -25 45 -37 25 -11 45 -23 45 -27 -1 -15 -29 -56 -30 -43 0 8 -3
12 -6 8 -3 -3 -2 -13 4 -22 7 -14 12 -12 30 20 20 34 22 50 22 227 0 170 -2
197 -21 249 -18 50 -20 61 -8 75 9 11 13 39 11 83 -2 83 -30 146 -81 184 -31
23 -42 41 -56 90 -10 34 -22 67 -25 72 -4 6 -10 30 -13 54 -4 35 -14 52 -46
81 -23 21 -41 43 -41 50 0 7 -14 29 -32 49 -41 46 -88 54 -108 16z m260 -1035
c0 -5 -2 -10 -4 -10 -3 0 -8 5 -11 10 -3 6 -1 10 4 10 6 0 11 -4 11 -10z"/>
<path d="M2120 1480 c-20 -10 -72 -28 -145 -50 -33 -10 -84 -27 -113 -38 -40
-16 -67 -19 -103 -15 -42 5 -49 3 -44 -9 4 -9 -3 -23 -17 -34 -13 -11 -35 -44
-50 -74 -16 -34 -44 -70 -73 -95 -27 -22 -54 -46 -61 -52 -7 -7 -19 -13 -26
-14 -32 -1 -203 -137 -343 -273 -66 -64 -135 -131 -153 -149 -30 -28 -33 -37
-29 -69 3 -22 1 -36 -4 -32 -5 3 -9 -6 -9 -19 0 -16 -15 -38 -44 -64 -39 -35
-45 -47 -51 -94 -5 -45 -3 -86 5 -109 1 -3 2 -12 1 -20 -1 -9 7 -16 20 -17 15
-1 20 3 16 15 -9 32 -9 37 -8 80 1 35 4 42 21 42 12 0 22 -9 26 -24 7 -29 -3
-49 -18 -40 -7 5 -9 0 -6 -14 4 -12 2 -20 -3 -16 -5 3 -9 1 -9 -5 0 -5 4 -12
9 -16 12 -7 8 -49 -6 -67 -6 -7 -13 -39 -17 -72 -8 -73 -21 -100 -47 -93 -15
4 -19 0 -19 -18 0 -22 3 -23 83 -23 47 0 88 5 96 11 11 9 15 9 18 0 4 -10 83
-13 354 -13 304 0 349 2 349 15 0 8 -5 15 -12 15 -21 0 0 12 26 14 28 3 36
-11 11 -20 -47 -18 17 -23 307 -23 258 -1 318 2 305 12 -16 11 -16 14 -1 35
12 18 19 21 30 11 7 -6 12 -15 9 -19 -3 -5 1 -11 7 -13 8 -3 6 -6 -4 -6 -31
-2 -20 -21 11 -21 36 0 61 23 54 50 -3 12 1 22 11 26 9 3 16 10 16 15 0 4 -6
6 -13 3 -10 -3 -13 4 -12 26 2 32 56 92 107 119 17 9 25 21 24 36 -1 17 -4 21
-13 13 -7 -6 -23 -8 -35 -5 -21 5 -21 5 -6 -7 16 -12 15 -15 -15 -42 -18 -16
-26 -22 -19 -14 6 8 12 19 12 25 0 5 -7 1 -15 -9 -9 -12 -11 -24 -6 -30 6 -7
2 -11 -12 -12 -12 -1 -29 -4 -37 -5 -8 -2 -14 2 -13 8 4 17 -17 16 -41 -2 -11
-8 -28 -15 -38 -15 -24 0 -23 26 2 33 11 3 20 1 20 -5 0 -5 5 -6 10 -3 17 10
11 25 -10 25 -13 0 -20 7 -20 19 0 11 -3 28 -6 38 -3 10 -2 14 3 8 4 -6 20
-12 34 -13 22 -1 27 3 27 23 0 21 -4 24 -20 19 -27 -8 -59 28 -60 69 0 41 8
112 15 123 2 5 8 23 11 40 7 30 5 31 -18 27 -22 -5 -26 -11 -26 -43 0 -21 -3
-52 -7 -70 -4 -24 -3 -31 5 -26 15 9 15 1 2 -25 -14 -24 -52 -25 -67 0 -9 14
-9 34 2 86 8 37 17 70 20 73 3 3 -2 13 -11 23 -9 10 -18 36 -21 58 -3 23 -10
41 -16 41 -6 0 -7 16 -2 43 4 23 9 52 10 65 1 12 10 29 21 37 18 14 18 14 0
15 -15 0 -17 5 -12 32 4 20 1 39 -8 53 -12 19 -20 60 -30 159 -2 16 -10 34
-19 41 -10 7 -17 17 -17 23 0 5 -7 12 -15 16 -11 4 -13 18 -9 66 4 47 2 66
-10 78 -23 26 -27 71 -10 97 19 30 15 66 -6 55z m-143 -212 c-3 -8 -6 -5 -6 6
-1 11 2 17 5 13 3 -3 4 -12 1 -19z m-17 -6 c0 -4 -9 -13 -20 -19 -16 -11 -18
-10 -14 2 4 8 10 15 16 15 5 0 6 5 2 12 -4 7 -3 8 4 4 7 -4 12 -10 12 -14z
m-40 4 c0 -3 -4 -8 -10 -11 -5 -3 -10 -1 -10 4 0 6 5 11 10 11 6 0 10 -2 10
-4z m-240 -17 c0 -6 7 -8 16 -5 12 4 10 -1 -5 -23 -12 -16 -21 -36 -21 -45 0
-9 -8 -16 -20 -16 -23 0 -26 10 -8 28 7 7 8 12 4 12 -5 0 -3 7 4 15 7 8 16 12
21 9 5 -3 9 0 9 5 0 6 -7 11 -16 11 -8 0 -12 5 -9 10 8 13 25 13 25 -1z m224
-27 c3 -5 -1 -9 -9 -9 -8 0 -15 4 -15 9 0 4 4 8 9 8 6 0 12 -4 15 -8z m-13
-28 c8 4 2 -2 -13 -14 -16 -12 -25 -27 -21 -35 3 -10 -1 -15 -12 -15 -9 0 -13
-4 -10 -10 3 -6 -1 -7 -10 -3 -13 5 -14 7 -3 14 7 5 9 9 4 9 -5 0 -2 8 6 18 8
9 18 26 22 37 6 15 9 16 15 6 5 -8 15 -10 22 -7z m14 -34 c-3 -5 -13 -10 -21
-10 -8 0 -12 5 -9 10 3 6 13 10 21 10 8 0 12 -4 9 -10z m-110 -145 c0 -17 -5
-25 -16 -25 -15 0 -16 4 -6 30 13 33 20 32 22 -5z m125 -85 c0 -13 -5 -17 -20
-13 -11 3 -20 0 -20 -6 0 -6 -6 -11 -12 -11 -7 1 -2 10 12 22 14 11 24 25 22
30 -1 5 2 7 8 3 5 -3 10 -14 10 -25z m-24 -84 c-79 -75 -87 -81 -95 -68 -24
39 20 87 73 80 11 -2 21 3 22 10 3 25 5 27 13 13 6 -9 2 -21 -13 -35z m-686
-16 c0 -5 -4 -10 -10 -10 -5 0 -10 5 -10 10 0 6 5 10 10 10 6 0 10 -4 10 -10z
m540 -39 c0 -5 -7 -12 -16 -15 -14 -5 -15 -4 -4 9 14 17 20 19 20 6z m107 -81
c8 -12 13 -24 10 -27 -3 -3 -2 -15 3 -28 5 -13 5 -36 0 -52 l-8 -28 -1 32 c-1
34 -21 57 -22 26 0 -13 -3 -12 -11 7 -5 14 -14 32 -18 40 -4 9 -11 30 -14 48
-7 32 -7 32 19 18 15 -8 34 -24 42 -36z m-597 -4 c0 -2 -11 -11 -25 -20 -14
-9 -25 -13 -25 -8 0 5 10 14 23 20 27 13 27 13 27 8z m-70 -46 c-20 -13 -33
-13 -25 0 3 6 14 10 23 10 15 0 15 -2 2 -10z m-117 -95 c-3 -9 -8 -14 -10 -11
-3 3 -2 9 2 15 9 16 15 13 8 -4z m1147 -36 c0 -6 -4 -7 -10 -4 -5 3 -10 11
-10 16 0 6 5 7 10 4 6 -3 10 -11 10 -16z m-886 -23 c-9 -7 -18 -24 -19 -37 -2
-28 -18 -31 -23 -5 -4 19 51 81 57 65 1 -6 -5 -16 -15 -23z m657 7 c-12 -20
-14 -14 -5 12 4 9 9 14 11 11 3 -2 0 -13 -6 -23z m39 -2 c-6 -12 -16 -21 -23
-21 -8 0 -9 3 -1 8 6 4 14 16 17 26 4 10 10 16 13 13 3 -3 1 -15 -6 -26z
m-668 -54 c2 -42 2 -43 -35 -52 -17 -5 -27 -3 -27 4 0 6 6 11 13 11 8 0 19 18
26 41 14 48 19 47 23 -4z m855 21 c-3 -8 -6 -5 -6 6 -1 11 2 17 5 13 3 -3 4
-12 1 -19z m-257 -14 c-18 -46 -11 -61 11 -26 12 17 24 32 28 32 3 0 5 -19 3
-42 l-3 -43 20 35 c15 25 20 30 21 16 0 -11 8 -28 18 -39 16 -19 16 -20 -5 -8
-23 12 -31 3 -13 -15 11 -11 1 -56 -11 -48 -5 3 -9 13 -9 24 0 10 -7 21 -16
24 -22 9 -9 -28 22 -59 28 -28 31 -53 8 -62 -8 -3 -13 -12 -10 -20 5 -11 2
-11 -17 -1 -12 7 -33 13 -47 13 -28 0 -39 19 -12 21 32 2 34 4 22 19 -10 12
-16 13 -27 4 -10 -9 -17 -9 -25 -1 -8 8 -9 12 -1 12 6 0 14 8 18 18 5 14 4 15
-6 5 -7 -7 -18 -13 -25 -13 -14 0 -3 59 21 118 23 54 54 87 35 36z m-578 -46
c-7 -7 -12 -8 -12 -2 0 14 12 26 19 19 2 -3 -1 -11 -7 -17z m695 0 c-3 -8 -6
-5 -6 6 -1 11 2 17 5 13 3 -3 4 -12 1 -19z m-1088 -48 c1 -13 0 -13 -9 0 -5 8
-9 26 -9 40 l1 25 8 -25 c4 -14 8 -32 9 -40z m747 6 c7 -41 0 -56 -27 -56 -22
0 -25 23 -6 63 16 36 25 34 33 -7z m-354 -8 c-7 -7 -12 -8 -12 -2 0 14 12 26
19 19 2 -3 -1 -11 -7 -17z m930 -42 c4 -5 2 -19 -4 -29 -5 -11 -8 -31 -5 -45
6 -30 -1 -54 -14 -46 -12 7 -11 71 2 95 9 19 9 19 -10 10 -16 -9 -19 -18 -15
-40 4 -16 1 -32 -5 -35 -8 -5 -10 11 -9 53 3 59 4 60 28 54 14 -3 28 -11 32
-17z m-85 -8 c-3 -8 -6 -5 -6 6 -1 11 2 17 5 13 3 -3 4 -12 1 -19z m-567 -23
c0 -5 -5 -3 -10 5 -5 8 -10 20 -10 25 0 6 5 3 10 -5 5 -8 10 -19 10 -25z
m-618 -27 c3 -18 8 -41 13 -51 5 -13 3 -16 -7 -12 -12 5 -14 -6 -13 -56 2 -59
-11 -109 -27 -109 -13 0 -13 38 -3 108 3 22 1 32 -8 32 -8 0 -14 7 -14 15 0 8
4 15 9 15 4 0 8 7 8 15 0 8 5 15 10 15 6 0 10 5 10 11 0 5 -4 7 -10 4 -5 -3
-10 -4 -10 -1 0 2 -3 13 -6 23 -4 14 -4 15 4 4 11 -15 32 -7 32 12 0 7 -4 6
-10 -3 -5 -8 -10 -10 -10 -4 0 14 11 25 20 19 4 -3 10 -19 12 -37z m1038 1 c0
-10 -5 -21 -10 -24 -6 -4 -8 -11 -5 -16 4 -5 2 -9 -3 -9 -5 0 -9 20 -8 44 1
34 4 42 14 34 6 -6 12 -19 12 -29z m-490 -10 c0 -5 -4 -9 -10 -9 -5 0 -10 7
-10 16 0 8 5 12 10 9 6 -3 10 -10 10 -16z m-400 -9 c0 -5 -2 -10 -4 -10 -3 0
-8 5 -11 10 -3 6 -1 10 4 10 6 0 11 -4 11 -10z m700 1 c0 -6 -4 -12 -9 -16 -5
-3 -12 -19 -16 -35 -4 -17 -11 -30 -17 -30 -6 0 -8 -6 -5 -14 3 -8 -1 -17 -9
-20 -19 -7 -18 18 1 34 8 7 15 18 15 26 0 19 22 64 32 64 4 0 8 -4 8 -9z
m-266 -74 c-8 -23 -26 -10 -19 14 4 12 1 21 -9 25 -9 3 -16 11 -16 17 0 7 11
0 25 -14 17 -16 24 -31 19 -42z m478 12 c-3 -22 -7 -27 -13 -18 -10 17 -12 53
-2 62 11 12 20 -12 15 -44z m-396 24 c7 -10 13 -22 13 -28 0 -5 -6 -1 -14 9
-8 11 -18 17 -21 13 -10 -9 6 -27 33 -38 13 -5 22 -13 19 -18 -3 -5 5 -12 19
-15 14 -4 25 -11 25 -17 0 -6 -4 -7 -10 -4 -5 3 -10 1 -10 -4 0 -6 -5 -11 -11
-11 -6 0 -9 7 -5 15 6 16 -9 21 -18 6 -7 -11 -56 -11 -56 1 0 5 -4 6 -10 3 -5
-3 -10 -1 -10 4 0 14 13 14 28 -1 13 -13 17 2 5 18 -5 5 0 1 10 -9 26 -29 20
-3 -7 30 -18 22 -22 33 -15 46 12 21 18 21 35 0z m-629 -15 c-3 -8 -6 -5 -6 6
-1 11 2 17 5 13 3 -3 4 -12 1 -19z m-137 -8 c0 -5 -7 -10 -15 -10 -8 0 -15 5
-15 10 0 6 7 10 15 10 8 0 15 -4 15 -10z m1345 -16 c-9 -9 -19 -13 -23 -10 -3
4 0 11 8 16 24 15 33 11 15 -6z m-1300 -24 c-3 -5 -10 -10 -16 -10 -5 0 -9 5
-9 10 0 6 7 10 16 10 8 0 12 -4 9 -10z m1380 -10 c-3 -5 -12 -10 -18 -10 -7 0
-6 4 3 10 19 12 23 12 15 0z m-412 -7 c-7 -2 -19 -2 -25 0 -7 3 -2 5 12 5 14
0 19 -2 13 -5z m-980 -42 c-4 -3 -10 -15 -11 -26 -2 -11 -8 -24 -13 -30 -15
-15 -11 22 8 63 12 29 17 33 20 18 3 -10 1 -21 -4 -25z m892 20 c3 -5 1 -12
-4 -15 -5 -3 -11 1 -15 9 -6 16 9 21 19 6z m-875 -77 c0 -14 -4 -23 -10 -19
-5 3 -10 15 -10 26 0 10 5 19 10 19 6 0 10 -12 10 -26z m860 -14 c0 -5 -2 -10
-4 -10 -3 0 -8 5 -11 10 -3 6 -1 10 4 10 6 0 11 -4 11 -10z"/>
<path d="M1966 403 c-6 -14 -5 -15 5 -6 7 7 10 15 7 18 -3 3 -9 -2 -12 -12z"/>
<path d="M2010 270 c0 -5 7 -7 15 -4 8 4 15 8 15 10 0 2 -7 4 -15 4 -8 0 -15
-4 -15 -10z"/>
<path d="M2180 1409 c-13 -24 -4 -41 10 -19 10 16 13 40 5 40 -2 0 -9 -9 -15
-21z"/>
<path d="M2160 1200 c0 -5 7 -7 15 -4 8 4 15 8 15 10 0 2 -7 4 -15 4 -8 0 -15
-4 -15 -10z"/>
<path d="M2384 379 c-9 -15 -2 -18 20 -9 17 6 18 7 3 13 -9 3 -19 2 -23 -4z"/>
<path d="M2453 348 c1 -15 6 -23 11 -18 4 4 4 16 -2 26 -9 16 -10 14 -9 -8z"/>
<path d="M2426 345 c4 -8 8 -15 10 -15 2 0 4 7 4 15 0 8 -4 15 -10 15 -5 0 -7
-7 -4 -15z"/>
<path d="M2480 349 c0 -5 5 -7 10 -4 6 3 10 8 10 11 0 2 -4 4 -10 4 -5 0 -10
-5 -10 -11z"/>
<path d="M2469 298 c-10 -18 -9 -20 6 -15 9 4 21 7 26 7 5 0 9 7 9 15 0 22
-28 18 -41 -7z"/>
<path d="M2391 253 c0 -10 3 -13 5 -7 3 7 15 10 27 7 18 -4 19 -3 7 6 -23 16
-40 13 -39 -6z"/>
<path d="M2450 259 c0 -5 5 -7 10 -4 6 3 10 8 10 11 0 2 -4 4 -10 4 -5 0 -10
-5 -10 -11z"/>
<path d="M2576 213 c-4 -5 -11 -8 -15 -8 -4 0 -15 -8 -25 -17 -10 -10 -14 -18
-11 -18 15 0 75 33 75 41 0 11 -14 12 -24 2z"/>
<path d="M855 201 c-3 -5 -1 -12 4 -15 5 -3 11 1 15 9 6 16 -9 21 -19 6z"/>
<path d="M2568 162 c-16 -9 -28 -20 -28 -24 0 -5 -5 -8 -11 -8 -5 0 -7 5 -4
10 10 17 1 11 -17 -9 -16 -19 -15 -19 18 -18 18 1 36 8 39 15 2 6 10 12 16 12
8 0 9 -4 0 -13 -6 -8 -8 -17 -4 -20 13 -14 19 -6 20 33 1 22 1 40 0 40 -1 0
-14 -8 -29 -18z"/>
<path d="M2485 150 c-3 -5 -1 -10 4 -10 6 0 11 5 11 10 0 6 -2 10 -4 10 -3 0
-8 -4 -11 -10z"/>
<path d="M0 70 l0 -70 80 0 80 0 0 28 c0 15 -4 32 -8 39 -6 10 -134 73 -148
73 -2 0 -4 -31 -4 -70z"/>
<path d="M829 99 c-17 -33 4 -41 23 -9 14 25 15 30 3 30 -8 0 -19 -9 -26 -21z"/>
<path d="M2546 49 c-38 -45 -32 -59 9 -19 19 18 32 37 29 42 -8 12 -10 11 -38
-23z"/>
</g>
</svg>
